<svg width="72" height="72" viewBox="0 0 512 512" fill="none" xmlns="http://www.w3.org/2000/svg">
  <rect width="512" height="512" rx="128" fill="#3B82F6"/>
  <circle cx="256" cy="256" r="180" fill="white"/>
  <path d="M256 96C167.634 96 96 167.634 96 256C96 344.366 167.634 416 256 416C344.366 416 416 344.366 416 256C416 167.634 344.366 96 256 96ZM256 376C189.766 376 136 322.234 136 256C136 189.766 189.766 136 256 136C322.234 136 376 189.766 376 256C376 322.234 322.234 376 256 376Z" fill="#3B82F6"/>
  <path d="M328 216L256 288L184 216" stroke="#3B82F6" stroke-width="24" stroke-linecap="round" stroke-linejoin="round"/>
  <path d="M256 352V288" stroke="#3B82F6" stroke-width="24" stroke-linecap="round" stroke-linejoin="round"/>
</svg>